<?xml version="1.0" encoding="utf-8"?>
<!-- Generator: Adobe Illustrator 27.2.0, SVG Export Plug-In . SVG Version: 6.00 Build 0)  -->
<svg version="1.1" id="Capa_1" xmlns="http://www.w3.org/2000/svg" xmlns:xlink="http://www.w3.org/1999/xlink" x="0px" y="0px"
	 viewBox="0 0 1000 1000" style="enable-background:new 0 0 1000 1000;" xml:space="preserve">
<style type="text/css">
	.st0{fill:#45b174;}
</style>
<path class="st0" d="M-0.76,290.36c4.45-12.71,13.77-19.33,26.27-23.84c150.27-54.14,300.42-108.58,450.53-163.16
	c11.07-4.02,21.28-3.85,32.24,0.13c150.44,54.63,300.94,109.07,451.42,163.58c19.86,7.19,28.31,20.88,23.53,37.69
	c-2.91,10.26-9.91,16.6-19.62,20.17c-14.05,5.15-28.09,10.35-42.29,15.08c-5.16,1.72-6.91,4.23-6.89,9.76
	c0.19,84.09,0.06,168.17,0.35,252.26c0.01,3.93,2.31,8.76,5.11,11.64c22.78,23.3,45.97,46.21,68.97,69.3
	c15.75,15.81,15.9,31.98,0.28,47.73c-22.72,22.91-45.48,45.79-68.53,68.36c-4.62,4.52-6.3,9.1-6.18,15.4
	c0.35,17.92,0.24,35.85,0.08,53.77c-0.16,18.19-12.46,31.25-29.19,31.34c-16.75,0.09-29.26-13-29.4-31.06
	c-0.14-18.58,0.29-37.16-0.28-55.72c-0.13-4.29-2.24-9.5-5.22-12.55c-22.5-23.12-45.47-45.78-68.25-68.63
	c-16.75-16.81-16.83-32.38-0.19-49.1c22.76-22.87,45.71-45.55,68.27-68.62c2.84-2.9,5.38-7.62,5.4-11.5
	c0.31-77.24,0.24-154.48,0.21-231.72c0-1.84-0.31-3.67-0.57-6.6c-22.72,8.16-44.77,15.81-66.5,24.3c-2.43,0.95-4.22,6.69-4.24,10.21
	c-0.26,57.36-0.64,114.73,0.1,172.08c0.22,16.79-5.24,29.33-17.47,40.32c-32.24,28.96-70.36,46.62-111.31,58.78
	c-70.89,21.05-143.56,24.45-216.81,20.51c-51.95-2.8-102.87-11.32-151.6-30.36c-30.26-11.83-58.23-27.42-82.1-49.92
	c-11.37-10.72-16.6-22.88-16.41-38.91c0.68-58,0.12-116.02,0.45-174.03c0.04-7.5-2.41-10.58-9.34-13.1
	C129,365.37,78.21,346.08,27.1,327.65c-12.63-4.55-22.61-10.95-27.87-23.6C-0.76,299.49-0.76,294.93-0.76,290.36z M114.63,296.89
	c4.1,1.68,6.68,2.82,9.32,3.8c117.45,43.52,234.92,86.97,352.3,130.68c6.87,2.56,12.66,2.49,19.5,0
	c89.61-32.53,179.32-64.79,269-97.12c33.86-12.21,67.71-24.45,103.2-37.26c-4.13-1.85-6.65-3.17-9.3-4.13
	c-119.3-43.21-238.59-86.47-358.03-129.3c-5.47-1.96-12.93-1.64-18.48,0.35c-97.4,34.88-194.66,70.18-291.93,105.42
	C165.47,278.29,140.77,287.35,114.63,296.89z M725.71,410.92c-5.02,1.72-8.07,2.72-11.09,3.81
	c-70.39,25.35-140.83,50.56-211.1,76.22c-12.3,4.49-23.45,4.55-35.84-0.12c-69.71-26.26-139.64-51.93-209.51-77.77
	c-3.13-1.16-6.34-2.1-10.27-3.4c0,51.33,0.16,101.18-0.19,151.03c-0.05,7.09,2.03,12.25,7.83,15.38
	c19.66,10.62,38.54,23.85,59.48,30.74c98.22,32.3,198.31,33.74,298.99,12.87c36.25-7.51,70.7-20.08,101.25-41.85
	c7.01-5,10.87-10.36,10.74-19.92c-0.62-44.97-0.27-89.94-0.27-134.92C725.71,419.48,725.71,415.96,725.71,410.92z M884.69,749.54
	c14.42-14.4,28.82-28.77,41.88-41.8c-14.02-13.97-28.59-28.5-41.75-41.62c-13.36,13.37-27.73,27.76-41.75,41.78
	C856.5,721.34,870.72,735.56,884.69,749.54z"/>
</svg>
