<?xml version="1.0" encoding="utf-8"?>
<!-- Generator: Adobe Illustrator 25.4.1, SVG Export Plug-In . SVG Version: 6.00 Build 0)  -->
<svg version="1.1" id="Capa_1" xmlns="http://www.w3.org/2000/svg" xmlns:xlink="http://www.w3.org/1999/xlink" x="0px" y="0px"
	 viewBox="0 0 50 50" style="enable-background:new 0 0 50 50;" xml:space="preserve">
<style type="text/css">
	.st0{fill:#334940;}
</style>
<g>
	<path class="st0" d="M14.5,18.4c0-2.7,0-5.2,0-7.8c0-1.7,0.3-3.2,1.1-4.7c2-4.1,6.6-6.5,11.1-5.7c4.5,0.8,7.5,3.5,8.7,8
		c0.2,0.8,0.3,1.7,0.3,2.5c0,2.6,0,5.1,0,7.7c0.2,0,0.4,0,0.5,0c1.3,0,2.6-0.1,3.9,0.1c2.7,0.3,4.9,2.8,4.9,5.5c0,1.8,0,3.6,0,5.4
		c0,4.9,0,9.8,0,14.6c0,2.9-1.8,5.2-4.6,5.8c-0.5,0.1-1,0.1-1.5,0.1c-9.3,0-18.5,0-27.8,0c-3.5,0-6-2.5-6-6c0-6.5,0-13,0-19.6
		c0-3.5,2.5-6,6-6C12.2,18.4,13.3,18.4,14.5,18.4z M25,46.1c4.6,0,9.2,0,13.8,0c1.5,0,2.3-0.8,2.3-2.2c0-6.4,0-12.9,0-19.3
		c0-1.5-0.8-2.2-2.3-2.2c-9.2,0-18.3,0-27.5,0C9.7,22.3,9,23,9,24.5C9,31,9,37.4,9,43.8c0,1.5,0.8,2.3,2.3,2.3
		C15.8,46.1,20.4,46.1,25,46.1z M31.6,18.3c0-0.1,0-0.2,0-0.3c0-2.6,0-5.2,0-7.8c0-0.4-0.1-0.9-0.2-1.3c-0.6-2.7-2.7-4.5-5.6-5
		c-3.9-0.6-7.5,2.4-7.5,6.3c0,2.6,0,5.1,0,7.7c0,0.1,0,0.2,0,0.3C22.8,18.3,27.2,18.3,31.6,18.3z"/>
	<path class="st0" d="M23,36.9c0-0.3,0-0.6,0-0.9c0-0.8-0.1-1.5-0.8-2.2c-1.4-1.4-1.1-3.8,0.4-5c1.6-1.3,3.8-1.1,5.1,0.4
		c1.3,1.6,1.1,3.8-0.5,5.1c-0.2,0.2-0.3,0.4-0.3,0.6c0,1.3,0,2.6,0,3.9c0,1-0.8,1.8-1.8,1.9c-1,0.1-1.9-0.6-2.1-1.6
		c0-0.2,0-0.4,0-0.5C23,38.1,23,37.5,23,36.9z"/>
</g>
</svg>
