<?xml version="1.0" encoding="utf-8"?>
<!-- Generator: Adobe Illustrator 27.2.0, SVG Export Plug-In . SVG Version: 6.00 Build 0)  -->
<svg version="1.1" id="Capa_1" xmlns="http://www.w3.org/2000/svg" xmlns:xlink="http://www.w3.org/1999/xlink" x="0px" y="0px"
	 viewBox="0 0 1000 1000" style="enable-background:new 0 0 1000 1000;" xml:space="preserve">
<style type="text/css">
	.st0{fill:#1F4B3F;}
</style>
<g>
	<path class="st0" d="M1000,505.79c-4.8,8.02-8.76,16.71-14.54,23.94c-70.39,88.11-151.93,163.74-250.08,220.25
		c-64.61,37.2-133.5,62.21-208.49,67.28c-61.18,4.14-120.36-6.22-177.55-27.95c-86.29-32.78-160.42-84.64-228.15-146.36
		c-39.71-36.19-76.02-75.57-109.06-117.94c-14.18-18.19-14.27-32.03,0.02-50.15c70.88-89.88,153.32-166.94,252.85-224.36
		c78.16-45.09,161.6-72.31,253.13-68.26c62.86,2.78,122.17,19.75,178.43,47.38c118.15,58.03,212.7,144.34,293.67,246.68
		c4.14,5.23,6.55,11.82,9.76,17.78C1000,497.98,1000,501.89,1000,505.79z M75.85,500.61c19.35,20.89,37.56,41.64,56.92,61.24
		c64.17,64.95,135.08,120.76,219.53,157.37c42.25,18.31,86.2,30.35,132.56,32.56c70.52,3.37,135.47-16.19,197.26-48.02
		c69.69-35.89,130.02-84.47,184.86-140.02c20.02-20.28,38.8-41.77,58.55-63.14c-3.62-4.3-6.11-7.67-9-10.63
		c-30.6-31.38-59.84-64.27-92.22-93.69c-60.5-54.97-127.72-99.9-205.55-127.48c-78.61-27.86-157.05-27.89-235.66-0.26
		c-67.66,23.79-127.12,61.53-182.19,106.74C155.58,412.48,114.71,454.15,75.85,500.61z"/>
	<path class="st0" d="M501.58,302.64c109.19,0.83,197.02,89.33,196.42,197.92C697.4,610,608.02,698.48,499.35,697.21
		c-109.38-1.27-196.97-89.97-195.92-198.39C304.49,389.49,393.05,301.82,501.58,302.64z M632.22,500.39
		c0.5-72.26-57.82-131.14-130.82-132.07c-72.18-0.92-132.36,58.96-132.3,131.66c0.05,72.43,58.81,131.27,131.4,131.59
		C572.73,631.87,631.72,573.14,632.22,500.39z"/>
</g>
</svg>
