<?xml version="1.0" encoding="utf-8"?>
<!-- Generator: Adobe Illustrator 27.2.0, SVG Export Plug-In . SVG Version: 6.00 Build 0)  -->
<svg version="1.1" id="Capa_1" xmlns="http://www.w3.org/2000/svg" xmlns:xlink="http://www.w3.org/1999/xlink" x="0px" y="0px"
	 viewBox="0 0 361.28 360.68" style="enable-background:new 0 0 361.28 360.68;" xml:space="preserve">
<style type="text/css">
	.st0{fill:#45b174;}
</style>
<path class="st0" d="M173.69,360.68c-6.1-1.44-12.46-2.29-18.26-4.41c-22.22-8.13-36.46-22.85-42.52-43.96
	c-0.29-1.02-0.57-2.04-0.87-3.06c-0.03-0.1-0.15-0.18-0.55-0.65c-1.06,0-2.45,0-3.85,0c-16.44,0-32.87,0.03-49.31-0.01
	c-21.24-0.05-33.47-18.93-22.98-35.66c8.69-13.86,17.6-27.6,26.55-41.33c6.55-10.06,9.77-20.77,9.4-32.51
	c-0.58-18.41-0.97-36.84-1.04-55.26c-0.18-45.14,29.77-82.65,77.05-96.87c0.73-0.22,1.42-0.53,2.1-0.78
	c-1.02-3.55-2.43-6.97-2.94-10.49c-2.41-16.55,8.76-31.05,26.67-34.97c0.72-0.16,1.4-0.48,2.1-0.72c3.63,0,7.25,0,10.88,0
	c0.7,0.24,1.38,0.56,2.1,0.72c21.29,4.64,32.54,24.31,24.45,42.74c-0.33,0.75-0.63,1.51-1.07,2.57c1.75,0.58,3.39,1.15,5.04,1.66
	c43.87,13.66,73.89,50.89,74.38,92.95c0.21,18.06-0.16,36.15-1,54.19c-0.66,14.32,2.78,27.32,11.08,39.53
	c8.41,12.37,16.31,25.03,24.34,37.6c11.29,17.66-0.72,36.57-23.21,36.62c-16.17,0.03-32.35,0.01-48.52,0.01c-1.39,0-2.79,0-4.28,0
	c-2.45,10.97-7.18,20.62-14.88,28.97c-11.71,12.68-26.58,20.24-44.68,22.51c-0.75,0.09-1.46,0.39-2.19,0.6
	C183.01,360.68,178.35,360.68,173.69,360.68z M305.44,285.82c-1-1.66-1.63-2.77-2.32-3.85c-9.27-14.51-18.6-28.98-27.8-43.53
	c-6.97-11.03-10.41-22.91-10.07-35.67c0.23-8.45,0.48-16.9,0.48-25.35c0-15.24,1.31-30.64-0.54-45.7
	c-5.47-44.44-54.76-75.2-102.88-65.17c-39.9,8.32-67.15,39.01-67.17,76.17c-0.01,19.36,0.47,38.73,1.01,58.09
	c0.39,13.99-3.17,26.95-10.91,39.02c-9.04,14.09-18.07,28.18-27.09,42.27c-0.68,1.06-1.25,2.18-2.12,3.71
	C139.32,285.82,221.94,285.82,305.44,285.82z M223.26,308.79c-28.39,0-56.76,0-85.14,0c1.64,14.69,22.38,29.14,41.95,29.34
	C200.21,338.34,221.21,324.15,223.26,308.79z M180.49,40.25c5.52,0.08,9.94-3.78,10-8.73c0.06-4.87-4.44-8.98-9.81-8.96
	c-5.41,0.02-9.85,4.08-9.81,8.97C170.9,36.32,175.17,40.18,180.49,40.25z"/>
</svg>
