<?xml version="1.0" encoding="utf-8"?>
<!-- Generator: Adobe Illustrator 27.2.0, SVG Export Plug-In . SVG Version: 6.00 Build 0)  -->
<svg version="1.1" id="Capa_1" xmlns="http://www.w3.org/2000/svg" xmlns:xlink="http://www.w3.org/1999/xlink" x="0px" y="0px"
	 viewBox="0 0 361.28 360.68" style="enable-background:new 0 0 361.28 360.68;" xml:space="preserve">
<style type="text/css">
	.st0{fill:#45b174;}
</style>
<path class="st0" d="M161.75,0c7.39,1.17,14.9,1.84,22.15,3.59c45.1,10.88,78.93,36.72,99.01,78.59
	c24.3,50.67,19.27,99.84-11.2,146.68c-1.15,1.77-2.54,3.38-3.82,5.06c-1.28,1.68-2.56,3.36-4.07,5.33c0.85,0.92,1.67,1.84,2.53,2.74
	c27.26,28.35,54.53,56.7,81.8,85.05c7.37,7.66,8.76,16.57,3.88,24.65c-5.91,9.78-19.41,12.01-28.14,4.62
	c-1.34-1.14-2.59-2.39-3.81-3.66c-27.28-28.34-54.54-56.69-81.79-85.05c-0.8-0.84-1.38-1.89-1.68-2.31
	c-9.32,4.9-17.63,10.06-26.53,13.82c-39.82,16.84-79.76,16.82-118.98-1.6c-41.02-19.27-67.83-51.26-79.53-94.99
	C1.2,143.76,6.41,106.55,26.97,71.98C48.73,35.38,80.8,12.6,122.28,3.19c6.71-1.52,13.62-2.15,20.44-3.19
	C149.06,0,155.41,0,161.75,0z M152.3,38.04C93.1,38.02,44.82,86.26,44.71,145.56c-0.12,59.21,47.75,107.22,107.39,107.69
	c58.98,0.47,107.86-48.38,107.75-107.66C259.73,86.25,211.53,38.05,152.3,38.04z"/>
</svg>
