<?xml version="1.0" encoding="utf-8"?>
<!-- Generator: Adobe Illustrator 27.2.0, SVG Export Plug-In . SVG Version: 6.00 Build 0)  -->
<svg version="1.1" id="Capa_1" xmlns="http://www.w3.org/2000/svg" xmlns:xlink="http://www.w3.org/1999/xlink" x="0px" y="0px"
	 viewBox="0 0 1000 1000" style="enable-background:new 0 0 1000 1000;" xml:space="preserve">
<style type="text/css">
	.st0{fill:#45b174;}
</style>
<g>
	<path class="st0" d="M0,531.23c0-20.83,0-41.66,0-62.49c1.5-12.22,2.78-24.47,4.54-36.65C20.21,323.78,65.5,229.73,142.2,151.61
		C236.73,55.31,352.08,4.7,486.94,0.36c94.91-3.06,184.44,18.96,265.42,68.62c155.57,95.41,239.21,235.1,247.17,417.76
		c4.21,96.57-20.07,187.25-70.77,269.64c-79.26,128.78-193.6,207.9-342.63,235.88c-18.13,3.4-36.57,5.15-54.86,7.66
		c-20.83,0-41.67,0-62.5,0c-12.2-1.51-24.42-2.81-36.58-4.56c-99.14-14.24-186.82-53.8-261.86-120.22
		C83.08,797.93,28.64,701.85,7.8,587.09C4.44,568.61,2.56,549.86,0,531.23z M937.53,499.94c-0.05-240.91-195.98-437-437.07-437.39
		C259.36,62.15,62.49,258.8,62.51,500.01c0.02,240.8,196.06,437.01,437.06,437.42C740.64,937.84,937.58,741.11,937.53,499.94z"/>
	<path class="st0" d="M531.27,468.74c22.81,0,44.25,0,65.69,0c39.7,0,79.4-0.06,119.1,0.02c19.82,0.04,33.94,13.15,33.93,31.22
		c-0.01,18.08-14.09,31.19-33.94,31.21c-57.6,0.08-115.19,0.03-172.79,0.03c-3.54,0-7.09,0-12,0c0,3.95,0,7.38,0,10.81
		c0,58.56,0.07,117.12-0.06,175.68c-0.03,15.17-8.61,26.56-22.36,30.79c-12.77,3.93-27.2-0.45-34.11-12.22
		c-3.58-6.09-5.65-13.98-5.71-21.08c-0.45-57.26-0.25-114.52-0.25-171.78c0-3.56,0-7.12,0-12.21c-3.78,0-7.19,0-10.6,0
		c-58.25,0-116.49,0.09-174.74-0.05c-24.32-0.06-40.07-21.96-30.96-43.11c5.75-13.33,16.53-19.38,31.03-19.36
		c57.92,0.07,115.84,0.03,173.76,0.03c3.51,0,7.01,0,11.5,0c0-4.34,0-7.82,0-11.3c0-58.56-0.09-117.12,0.08-175.68
		c0.05-16.69,11.75-29.68,27.49-31.55c15.67-1.87,30.58,8.6,34.08,24.33c0.91,4.06,0.81,8.4,0.81,12.61
		c0.05,56.61,0.03,113.22,0.03,169.83C531.27,460.49,531.27,464.01,531.27,468.74z"/>
</g>
</svg>
