<?xml version="1.0" encoding="utf-8"?>
<!-- Generator: Adobe Illustrator 27.2.0, SVG Export Plug-In . SVG Version: 6.00 Build 0)  -->
<svg version="1.1" id="Capa_1" xmlns="http://www.w3.org/2000/svg" xmlns:xlink="http://www.w3.org/1999/xlink" x="0px" y="0px"
	 viewBox="0 0 1000 1000" style="enable-background:new 0 0 1000 1000;" xml:space="preserve">
<style type="text/css">
	.st0{fill:#3C3C3C;}
</style>
<g>
	<path class="st0" d="M576.27,0c6.11,1.92,12.29,3.63,18.31,5.81c36.28,13.16,60.73,47.1,61.65,85.65
		c0.26,10.7,0.04,21.42,0.04,33.53c3.97,0,7.39,0,10.82,0c52.39,0,104.78-0.06,157.18,0.02c48.75,0.07,81.93,33.38,82.03,82.27
		c0.07,33.52,0.04,67.04,0,100.55c-0.03,23.86-12.12,35.81-36.17,35.88c-3.81,0.01-7.61,0-12.06,0c-1.5,30.21-2.98,59.37-4.38,88.55
		c-5.05,105.3-10.04,210.59-15.1,315.89c-2.67,55.57-4.74,111.18-8.38,166.69c-3.09,47.14-42.66,83.75-89.95,84.91
		c-19.19,0.47-38.4,0.15-57.6,0.15c-138.95,0.01-277.9,0.07-416.86-0.03c-48.8-0.04-88.75-32.17-95.12-78.24
		c-3.29-23.77-3.26-48.01-4.43-72.06c-5.09-104.97-10.08-209.94-15.08-314.91c-2.85-59.8-5.63-119.6-8.46-179.4
		c-0.17-3.51-0.43-7.01-0.71-11.56c-5.96,0-11.4,0.14-16.83-0.03c-17.66-0.55-31.06-13.41-31.19-30.95
		c-0.28-37.75-0.68-75.51,0.16-113.24c0.91-40.92,35.34-74.02,76.88-74.36c53.69-0.44,107.39-0.12,161.08-0.13
		c3.52,0,7.04,0,11.75,0c0-9.67-0.03-18.66,0-27.66c0.17-49.01,28.86-84.75,76.73-95.66c1.18-0.27,2.22-1.1,3.33-1.67
		C474.71,0,525.49,0,576.27,0z M204.88,344.05c1.01,22.75,1.92,44.48,2.95,66.21c4.98,104.64,10.02,209.28,15,313.92
		c2.82,59.14,5.43,118.3,8.44,177.43c1.3,25.58,12.69,35.8,38.55,35.8c153.91,0,307.82,0.01,461.73,0
		c24.39,0,35.79-10.52,37.31-35.05c1.19-19.16,1.79-38.35,2.69-57.52c3.48-74.1,6.95-148.19,10.49-222.29
		c4.27-89.37,8.6-178.73,12.88-268.09c0.16-3.41,0.02-6.83,0.02-10.41C597.92,344.05,402.12,344.05,204.88,344.05z M843.82,280.89
		c0-23.96,0.01-47.01,0-70.06c-0.01-19.19-4.2-23.35-23.51-23.35c-213.42,0-426.85,0-640.27,0c-0.65,0-1.3,0-1.95,0
		c-16.76,0.04-21.67,4.82-21.69,21.25c-0.03,21.15-0.03,42.29,0.02,63.44c0.01,2.81,0.34,5.62,0.54,8.72
		C385.9,280.89,614.19,280.89,843.82,280.89z M406.53,124.48c63.07,0,124.76,0,187.12,0c0-11.8,0.71-23.16-0.17-34.39
		c-1.18-15.05-14.18-27.28-29.45-27.42c-42.61-0.37-85.22-0.37-127.83,0c-15.23,0.13-28.33,12.44-29.49,27.41
		C405.83,101.31,406.53,112.67,406.53,124.48z"/>
	<path class="st0" d="M312.63,640.58c0-67.04-0.04-134.08,0.03-201.12c0.01-15.24,7.55-26.51,20.42-31.26
		c12.09-4.46,26.24-1.99,33.46,8.63c4.78,7.03,8.19,16.57,8.23,25c0.51,128.22,0.35,256.44,0.35,384.66c0,5.53,0.11,11.07-0.03,16.6
		c-0.47,18.23-14.02,31.9-31.41,31.79c-17.35-0.11-30.94-13.88-30.97-32.2C312.54,775.31,312.63,707.95,312.63,640.58z"/>
	<path class="st0" d="M468.86,640.04c0-67.04-0.1-134.08,0.06-201.12c0.06-23.33,20.97-38.42,41.91-30.73
		c12.16,4.47,20.21,15.68,20.45,29.3c0.25,14.31,0.07,28.64,0.07,42.96c0,118.78,0.01,237.56-0.03,356.35
		c0,4.54,0.13,9.2-0.83,13.58c-3.45,15.73-18.42,26.23-34.06,24.34c-16.02-1.94-27.5-15.24-27.53-32.59
		c-0.11-61.83-0.04-123.66-0.04-185.5C468.86,651.1,468.86,645.57,468.86,640.04z"/>
	<path class="st0" d="M625.1,640.05c0-67.04-0.1-134.08,0.06-201.12c0.06-23.33,20.96-38.43,41.89-30.74
		c12.17,4.47,20.21,15.68,20.46,29.29c0.25,13.66,0.07,27.34,0.07,41c0,119.43,0.01,238.87-0.03,358.3c0,4.54,0.14,9.2-0.82,13.58
		c-3.44,15.73-18.41,26.23-34.05,24.35c-15.67-1.89-27.46-15-27.51-31.6c-0.16-61.51-0.07-123.01-0.07-184.52
		C625.09,652.42,625.09,646.23,625.1,640.05z"/>
</g>
</svg>
