<?xml version="1.0" encoding="utf-8"?>
<!-- Generator: Adobe Illustrator 27.2.0, SVG Export Plug-In . SVG Version: 6.00 Build 0)  -->
<svg version="1.1" id="Capa_1" xmlns="http://www.w3.org/2000/svg" xmlns:xlink="http://www.w3.org/1999/xlink" x="0px" y="0px"
	 viewBox="0 0 1000 1000" style="enable-background:new 0 0 1000 1000;" xml:space="preserve">
<style type="text/css">
	.st0{fill:#1F4B3F;}
</style>
<g>
	<g>
		<path class="st0" d="M500,471.53c-129.99,0-235.79-105.75-235.79-235.79S370.01,0,500,0s235.79,105.75,235.79,235.79
			S630.03,471.53,500,471.53z M500,65.04c-94.15,0-170.75,76.6-170.75,170.75S405.85,406.53,500,406.53s170.75-76.6,170.75-170.75
			S594.15,65.04,500,65.04z"/>
	</g>
	<g>
		<g>
			<path class="st0" d="M906.53,1000c-17.94,0-32.52-14.58-32.52-32.52c0-206.19-167.77-373.96-373.96-373.96
				S126.08,761.29,126.08,967.48c0,17.94-14.58,32.52-32.52,32.52s-32.57-14.58-32.57-32.52c0-117.26,45.69-227.5,128.57-310.43
				S382.74,528.47,500,528.47s227.5,45.68,310.43,128.57s128.57,193.17,128.57,310.43C939.05,985.42,924.48,1000,906.53,1000z"/>
		</g>
	</g>
</g>
</svg>
